<svg width="21" height="21" viewBox="0 0 21 21" fill="none" xmlns="http://www.w3.org/2000/svg">
<path d="M20.0093 9.0874L14.0618 6.92552L11.8999 0.978022C11.7933 0.690957 11.6015 0.443377 11.3501 0.268544C11.0987 0.0937112 10.7998 0 10.4936 0C10.1874 0 9.88857 0.0937112 9.63719 0.268544C9.38581 0.443377 9.19395 0.690957 9.0874 0.978022L6.92552 6.92552L0.978022 9.0874C0.690957 9.19395 0.443377 9.38581 0.268544 9.63719C0.0937112 9.88857 0 10.1874 0 10.4936C0 10.7998 0.0937112 11.0987 0.268544 11.3501C0.443377 11.6015 0.690957 11.7933 0.978022 11.8999L6.92552 14.0627L9.0874 20.0093C9.19395 20.2963 9.38581 20.5439 9.63719 20.7187C9.88857 20.8936 10.1874 20.9873 10.4936 20.9873C10.7998 20.9873 11.0987 20.8936 11.3501 20.7187C11.6015 20.5439 11.7933 20.2963 11.8999 20.0093L14.0627 14.0618L20.0093 11.8999C20.2963 11.7933 20.5439 11.6015 20.7187 11.3501C20.8936 11.0987 20.9873 10.7998 20.9873 10.4936C20.9873 10.1874 20.8936 9.88857 20.7187 9.63719C20.5439 9.38581 20.2963 9.19395 20.0093 9.0874ZM13.2199 12.7718C13.117 12.8092 13.0236 12.8688 12.9462 12.9462C12.8688 13.0236 12.8092 13.117 12.7718 13.2199L10.4936 19.4843L8.21552 13.2199C8.17806 13.117 8.11853 13.0236 8.04112 12.9462C7.9637 12.8688 7.87027 12.8092 7.7674 12.7718L1.50302 10.4936L7.7674 8.21552C7.87027 8.17806 7.9637 8.11853 8.04112 8.04112C8.11853 7.9637 8.17806 7.87027 8.21552 7.7674L10.4936 1.50302L12.7718 7.7674C12.8092 7.87027 12.8688 7.9637 12.9462 8.04112C13.0236 8.11853 13.117 8.17806 13.2199 8.21552L19.4843 10.4936L13.2199 12.7718Z" fill="url(#paint0_linear_692_9)"/>
<defs>
<linearGradient id="paint0_linear_692_9" x1="10.4936" y1="0" x2="10.4936" y2="20.9873" gradientUnits="userSpaceOnUse">
<stop stop-color="#D7D2CC"/>
<stop offset="1" stop-color="#304352"/>
</linearGradient>
</defs>
</svg>
